<svg width="17" height="16" viewBox="0 0 17 16" fill="none" xmlns="http://www.w3.org/2000/svg">
<path d="M14.4757 3.78309H12.0631V2.16098C12.0631 1.26072 11.3473 0.538879 10.4546 0.538879H5.62943C4.73676 0.538879 4.02102 1.26072 4.02102 2.16098V3.78309H1.60841C0.715741 3.78309 0 4.50493 0 5.4052V14.3268C0 15.227 0.715741 15.9489 1.60841 15.9489H14.4757C15.3683 15.9489 16.0841 15.227 16.0841 14.3268V5.4052C16.0841 4.50493 15.3683 3.78309 14.4757 3.78309ZM5.62943 2.16098H10.4546V3.78309H5.62943V2.16098ZM14.4757 14.3268H1.60841V12.7047H14.4757V14.3268ZM14.4757 10.2715H1.60841V5.4052H4.02102V7.0273H5.62943V5.4052H10.4546V7.0273H12.0631V5.4052H14.4757V10.2715Z" fill="#001524"/>
</svg>
