<svg width="15" height="14" viewBox="0 0 15 14" fill="none" xmlns="http://www.w3.org/2000/svg">
<path d="M0 12.7868C0 12.978 0.0792936 13.1614 0.220437 13.2967C0.361581 13.4319 0.553012 13.5079 0.752619 13.5079H13.2963C13.4959 13.5079 13.6873 13.4319 13.8285 13.2967C13.9696 13.1614 14.0489 12.978 14.0489 12.7868V4.37428H0V12.7868ZM9.72666 5.45589H10.5367V11.4648H9.53318V6.78656L8.42338 7.57013L7.82755 6.79618L9.72666 5.45589ZM5.95824 9.16039C5.69043 8.8978 5.24481 8.77973 5.01401 8.77973H4.51227V7.8183H5.01401C5.1661 7.8183 5.55997 7.74018 5.80677 7.49832C5.87354 7.43541 5.92624 7.36013 5.96166 7.27707C5.99708 7.19401 6.01448 7.10491 6.0128 7.0152C6.0128 6.31727 5.11499 6.29714 5.01276 6.29714C4.46899 6.29714 4.26641 6.61591 4.25794 6.62943L4.00299 7.04345L3.13874 6.55462L3.394 6.14091C3.63358 5.75032 4.18488 5.33571 5.01276 5.33571C5.5283 5.33571 6.00872 5.47902 6.36528 5.73891C6.78518 6.04536 7.01629 6.49844 7.01629 7.0152C7.01771 7.22945 6.97482 7.44184 6.8901 7.64011C6.80538 7.83839 6.68051 8.01863 6.5227 8.17042C6.48664 8.20587 6.44869 8.23892 6.41012 8.27107C6.50433 8.33627 6.59265 8.40893 6.67416 8.48829C7.00532 8.81277 7.1803 9.26194 7.1803 9.78772C7.1803 10.3303 6.94166 10.8092 6.50859 11.1373C6.12695 11.4261 5.60701 11.585 5.04412 11.585C4.17014 11.585 3.52383 11.0394 3.23595 10.5725L2.981 10.1585L3.84526 9.66965L4.10115 10.0828C4.13502 10.138 4.4508 10.6236 5.04506 10.6236C5.5675 10.6236 6.17775 10.4045 6.17775 9.78772C6.17775 9.59995 6.13949 9.33856 5.95824 9.16039ZM13.2963 1.00928H11.5427V0.0478516H10.0374V1.00928H4.01146V0.0478516H2.50622V1.00928H0.752619C0.65416 1.00849 0.55651 1.02637 0.465296 1.06189C0.374081 1.09742 0.291105 1.14988 0.221147 1.21626C0.151189 1.28265 0.095632 1.36164 0.0576775 1.44868C0.0197229 1.53573 0.000120635 1.62911 0 1.72344V3.41285H14.0489V1.72344C14.0488 1.62911 14.0292 1.53573 13.9912 1.44868C13.9533 1.36164 13.8977 1.28265 13.8277 1.21626C13.7578 1.14988 13.6748 1.09742 13.5836 1.06189C13.4924 1.02637 13.3947 1.00849 13.2963 1.00928Z" fill="#FFC700"/>
</svg>
