<svg width="13" height="13" viewBox="0 0 13 13" fill="none" xmlns="http://www.w3.org/2000/svg">
<path d="M6.5 0.16748C2.91031 0.16748 0 2.9558 0 6.39502C0 9.82885 2.91625 12.6226 6.5 12.6226C10.0894 12.6226 13 9.83394 13 6.39502C13 2.96119 10.0841 0.16748 6.5 0.16748ZM9.875 7.3531H6.125C6.09185 7.3531 6.06005 7.34049 6.03661 7.31803C6.01317 7.29557 6 7.26511 6 7.23334V2.20341C6 2.17164 6.01317 2.14118 6.03661 2.11872C6.06005 2.09626 6.09185 2.08365 6.125 2.08365H6.875C6.90815 2.08365 6.93995 2.09626 6.96339 2.11872C6.98683 2.14118 7 2.17164 7 2.20341V6.39502H9.875C9.90815 6.39502 9.93995 6.40764 9.96339 6.4301C9.98683 6.45256 10 6.48302 10 6.51478V7.23334C10 7.26511 9.98683 7.29557 9.96339 7.31803C9.93995 7.34049 9.90815 7.3531 9.875 7.3531Z" fill="#FFC700"/>
</svg>
