<svg width="13" height="13" viewBox="0 0 13 13" fill="none" xmlns="http://www.w3.org/2000/svg">
<path d="M10.4167 12.455C9.85015 12.455 9.05431 12.2587 7.8626 11.6209C6.41344 10.8425 5.29254 10.1238 3.85122 8.74676C2.46156 7.41644 1.78531 6.55514 0.83884 4.90538C-0.230397 3.04265 -0.0481273 2.06625 0.15562 1.64895C0.398259 1.15018 0.756412 0.851869 1.21934 0.555779C1.48228 0.390757 1.76054 0.249296 2.05058 0.133191C2.07961 0.121236 2.1066 0.109837 2.13069 0.0995507C2.27436 0.0375526 2.49203 -0.0561397 2.76776 0.043947C2.95177 0.110115 3.11605 0.24551 3.3732 0.488777C3.90056 0.986986 4.62122 2.09656 4.88708 2.64147C5.06557 3.00874 5.1837 3.25117 5.18399 3.52307C5.18399 3.8414 5.01681 4.08689 4.81394 4.35184C4.77592 4.40161 4.73819 4.44915 4.70162 4.4953C4.48074 4.77332 4.43228 4.85367 4.4642 4.99712C4.52892 5.28543 5.01159 6.14367 5.80481 6.90183C6.59803 7.65999 7.46816 8.09314 7.7703 8.15486C7.92645 8.18683 8.01207 8.13845 8.31159 7.91938C8.35455 7.88796 8.39867 7.85543 8.44481 7.8229C8.75421 7.60244 8.99859 7.44647 9.32307 7.44647H9.32482C9.60722 7.44647 9.84899 7.56379 10.2495 7.75729C10.7719 8.00973 11.9651 8.69116 12.4884 9.19687C12.7429 9.44264 12.8849 9.59944 12.9542 9.77543C13.0587 10.0404 12.9603 10.2481 12.8962 10.3871C12.8855 10.4101 12.8736 10.4354 12.8611 10.4635C12.7389 10.7409 12.5904 11.0068 12.4173 11.2581C12.1088 11.7002 11.7962 12.0424 11.2743 12.2751C11.0064 12.3965 10.7131 12.458 10.4167 12.455Z" fill="#FFC700"/>
</svg>
